<?xml version="1.0" encoding="utf-8"?>
<!-- Generator: Adobe Illustrator 27.1.1, SVG Export Plug-In . SVG Version: 6.00 Build 0)  -->
<svg version="1.1" id="Layer_1" transform="rotate(270)"
	 xmlns="http://www.w3.org/2000/svg" xmlns:xlink="http://www.w3.org/1999/xlink" x="0px" y="0px" viewBox="0 0 327.3 692.8"
	 style="enable-background:new 0 0 327.3 692.8;" xml:space="preserve">
<style type="text/css">
	.st0{display:none;fill-rule:evenodd;clip-rule:evenodd;fill:#2A7FFF;}
	.st1{fill-rule:evenodd;clip-rule:evenodd;}
	.st2{fill-rule:evenodd;clip-rule:evenodd;fill:#FFFFFF;}
</style>
<circle class="st0" cx="161" cy="346.4" r="400"/>
<path class="st1" d="M172.7,59.9L97.4,10.4C55.6-17,0,13,0,63l0,566.8c0,50,55.6,80,97.4,52.6l75.3-49.5
	C378.8,497.4,378.8,195.4,172.7,59.9z"/>
<path class="st2" d="M110.2,432.5c-7.7,11.5-4.6,27,6.9,34.7c11.5,7.7,27,4.6,34.7-6.9l54.3-81.5c13.1-19.6,13.1-45.1,0-64.7
	l-54.3-81.5c-7.7-11.5-23.2-14.6-34.7-6.9c-11.5,7.7-14.6,23.2-6.9,34.7l54.3,81.5c1.9,2.8,1.9,6.4,0,9.2L110.2,432.5z"/>
</svg>
